<svg xmlns="http://www.w3.org/2000/svg" viewBox="4048 28 160.739 69.676">
  <defs>
    <style>
      .cls-1 {
        fill: #45b649;
      }
    </style>
  </defs>
  <g id="Layer_2_2_" transform="translate(4048.034 28)">
    <g id="Layer_1-2_1_" transform="translate(-0.034)">
      <path id="Path_1" data-name="Path 1" class="cls-1" d="M78.061,86.093c-1.434-.5-1.792-1.649-1.505-3.154l-.645.287a13.89,13.89,0,0,1-10.322.215,6.7,6.7,0,0,1-4.516-5.018,3.04,3.04,0,0,1,.645-2.581,11.456,11.456,0,0,1,7.814-5.09,26.656,26.656,0,0,1,6.308-.358c.43,0,.573-.072.645-.5a9.883,9.883,0,0,0-.287-4.086c-.717-1.935-2.294-2.8-4.588-2.581a3.683,3.683,0,0,0-3.369,3.369c0,.287-.072.5-.072.789a1.667,1.667,0,0,1-1.792,1.434c-.143,0-.215-.072-.358-.072-2.437-.5-3.369-1.935-2.8-4.373a7.6,7.6,0,0,1,5.3-5.663,9.507,9.507,0,0,1,11.541,4.659,20.607,20.607,0,0,1,1.649,4.588,38.082,38.082,0,0,1,.645,11.756c-.072,1.29-.215,2.509-.358,3.8s-.43,2.222-1.72,2.652H78.061ZM73.831,74.48c-.573.072-1.434.072-2.294.215a5.657,5.657,0,0,0-3.584,1.434,2.433,2.433,0,0,0-.573,2.366,1.766,1.766,0,0,0,1.649,1.219,8.656,8.656,0,0,0,3.3-.358,4.506,4.506,0,0,0,3.3-2.222c.932-1.72.86-2.724-1.792-2.652Z" transform="translate(-17.249 -16.488)"/>
      <path id="Path_3" data-name="Path 3" class="cls-1" d="M218.014,64.172a3.634,3.634,0,0,1-1.792,1.792,2.15,2.15,0,0,1-2.867-1.147,2.093,2.093,0,0,1-.143-.645,3.362,3.362,0,0,0-.645-1.577,1.13,1.13,0,0,0-1.505-.358,1.217,1.217,0,0,0-.43.43,7.932,7.932,0,0,0-.86,1.935,35.494,35.494,0,0,0-1.577,12.831,14.138,14.138,0,0,0,.5,2.509c.215,1.075.358,2.15-.789,2.939a4.045,4.045,0,0,1-4.014.215,3.417,3.417,0,0,1-1.075-3.512,2.436,2.436,0,0,0,.215-1.434c-.143-3.512-.287-7.1-.358-10.609-.072-1.935-.072-3.943-.287-5.878-.215-1.505.645-2.294,1.72-3.011a2.8,2.8,0,0,1,3.369.143c.717.573,1.075.358,1.649-.143a4.322,4.322,0,0,1,5.161-.5,8.14,8.14,0,0,1,3.584,4.014Z" transform="translate(-57.275 -16.288)"/>
      <path id="Path_4" data-name="Path 4" class="cls-1" d="M129.663,59.823c1.505-1.649,3.082-2.939,5.448-2.366,2.294.573,3.3,2.366,4.3,4.229a11.088,11.088,0,0,1,1.362-2.581,5.373,5.373,0,0,1,8.745-.5,15.043,15.043,0,0,1,3.226,7.025,56.152,56.152,0,0,1,1,9.175c.072,2.222,0,4.444-.072,6.667a2.8,2.8,0,0,1-3.656,2.8,2.278,2.278,0,0,1-.645-.215c-1.219-.43-1.219-.5-1.219-1.792-.072-4.086-.072-8.1-.143-12.186a23.536,23.536,0,0,0-1.075-7.025c-.215-.717-.43-1.649-1.29-1.792s-1.219.789-1.649,1.434a13.329,13.329,0,0,0-1.72,5.161,34.087,34.087,0,0,0-.717,8.1,13.31,13.31,0,0,0,.358,2.437,1.019,1.019,0,0,0,.143.43c.43,1.935-.358,3.369-1.935,3.584a3.309,3.309,0,0,1-4.014-2.437c0-.143-.072-.287-.072-.43a64.377,64.377,0,0,1,.072-8.315,37.927,37.927,0,0,0-.072-6.38,5.393,5.393,0,0,0-1-2.366c-.287-.43-.789-.5-1,0-.86,1.935-2.222,3.513-3.011,5.448a23.373,23.373,0,0,0-1.29,9.175c0,1,.143,2.079.215,3.082a2.436,2.436,0,0,1-.215,1.434,2.478,2.478,0,0,1-2.007,1.72,2.385,2.385,0,0,1-2.366-1.075,6.27,6.27,0,0,1-1.219-3.728c-.143-3.584-.072-7.1-.072-10.609,0-1.29,0-2.652-.072-3.943a11.329,11.329,0,0,1,1.219-5.09c.358-.789.789-1.72,1.935-1.649a3.764,3.764,0,0,1,2.509,2.151Q129.663,59.608,129.663,59.823Z" transform="translate(-35.088 -16.024)"/>
      <path id="Path_5" data-name="Path 5" class="cls-1" d="M37,68.75a38.009,38.009,0,0,0,.143,4.946,3.142,3.142,0,0,0,.5,1.362,2.26,2.26,0,0,1-.287,3.154c-.072.072-.143.072-.215.143a2.7,2.7,0,0,1-3.728.215,5.93,5.93,0,0,1-1.649-3.656A48.067,48.067,0,0,1,31.7,62.084a105.315,105.315,0,0,0,1-15.77c0-.573-.143-.717-.717-.789a2.692,2.692,0,0,1-2.294-3.082.542.542,0,0,1,.072-.287,1.6,1.6,0,0,1,1.362-1.219c1.075-.215,1.72-.573,1.72-1.864s1.219-1.577,2.939-1.147a5.656,5.656,0,0,1,2.079,1.29.942.942,0,0,0,.86.215,56.555,56.555,0,0,1,9.175-1.29c1.505-.143,3.082-.215,4.588-.215a3.3,3.3,0,0,1,2.581,1.219,2.009,2.009,0,0,1,.645,2.294,2.544,2.544,0,0,1-2.366,1.72,2.733,2.733,0,0,1-1.075-.072c-1.792-.645-3.584-.287-5.376,0-2.509.43-5.018,1.075-7.455,1.72a.781.781,0,0,0-.717.789c-.43,3.441-1,6.81-1.147,10.251v.86c.072,1.29.5,1.649,1.792,1.505Q41.624,58,43.882,58a21.768,21.768,0,0,1,3.728.287,7.7,7.7,0,0,1,2.8,1,2.115,2.115,0,0,1,.86,2.867,3.977,3.977,0,0,1-.43.573,2.167,2.167,0,0,1-2.079.358c-3.441-.86-6.81-.43-10.251-.072a1.607,1.607,0,0,0-1.577,1.649v.143C36.929,66.026,37,67.388,37,68.75Z" transform="translate(-8.374 -10.687)"/>
      <path id="Path_6" data-name="Path 6" class="cls-1" d="M170.6,73.327a23.456,23.456,0,0,1,3.441-11.971c2.294-3.584,5.806-4.516,9.677-1.935a31.124,31.124,0,0,1,4.158,3.3c1.72,1.649,1.864,3.8,1.362,6.021-.717,3.154-2.867,4.874-5.806,5.806a11.012,11.012,0,0,1-6.452.215c-.717-.215-.789,0-.789.645a9.024,9.024,0,0,0,.287,1.935,3.448,3.448,0,0,0,3.943,2.294,7.4,7.4,0,0,0,3.154-1,12.725,12.725,0,0,1,4.3-1.792c.789-.143,1.577-.358,2.151.287a2.32,2.32,0,0,1,.143,2.366,5.236,5.236,0,0,1-3.154,3.011,18.6,18.6,0,0,1-9.462,1.505c-2.8-.43-4.946-1.72-5.95-4.516A21.761,21.761,0,0,1,170.6,73.327Zm6.38-6.308a3.08,3.08,0,0,0,1.792,3.154,4.153,4.153,0,0,0,4.659-1.434,2.654,2.654,0,0,0,.43-2.079,5.446,5.446,0,0,0-2.222-3.369,1.831,1.831,0,0,0-2.222-.072,5.5,5.5,0,0,0-2.437,3.8Z" transform="translate(-48.284 -16.41)"/>
      <g id="Group_370" data-name="Group 370">
        <path id="Path_2" data-name="Path 2" class="cls-1" d="M23.56,0c1.29.215,2.509.43,3.8.645a25.557,25.557,0,0,1,4.731,1.29c-2.724,1.434-4.373,3.871-6.021,6.308-1.075,1.577-2.079,3.154-3.082,4.731A7.462,7.462,0,0,1,17.4,16.416,14.971,14.971,0,0,1,9.654,15.7a.854.854,0,0,0-1.147.358C7.575,17.347,6.643,18.638,5.783,20c-.573,1-1.075,1.075-2.007.43-.717-.5-.717-1.075-.215-1.864,2.867-4.3,6.882-7.383,11.254-9.964a56.41,56.41,0,0,1,8.172-3.8c-1.219-.43-6.595.573-9.606,1.864a26.122,26.122,0,0,0-8.172,5.52,9.03,9.03,0,0,1,.5-4.588C6.858,4.444,9.3,2.581,12.378,1.434A20.6,20.6,0,0,1,18.184.143c.143,0,.358.072.5-.143Z" transform="translate(-0.884)"/>
        <path id="Path_7" data-name="Path 7" class="cls-1" d="M-.01,50.844v-8.1a4.641,4.641,0,0,1,4.8-4.444,4.553,4.553,0,0,1,1.649.358A2.375,2.375,0,0,1,7.661,41.74a21.24,21.24,0,0,0-1,4.086c-.215,2.867-.43,5.806-.5,8.674-.215,5.161-.287,10.322-.287,15.412A8.826,8.826,0,0,0,7.3,74.858c.143.215.215.43.358.645.573,1.362,0,2.294-1.505,2.366H4.506a2.779,2.779,0,0,1-2.8-2.007,20.345,20.345,0,0,1-1.29-7.1C-.01,63.317-.081,57.869-.01,50.844Z" transform="translate(0.034 -10.844)"/>
      </g>
      <path id="Path_8" data-name="Path 8" class="cls-1" d="M97.818,79.975a37.445,37.445,0,0,0,.143-6.953c-.143-3.584-.43-7.24-.573-10.824a6.365,6.365,0,0,1,.072-1.649c.358-1.649,1.72-2.437,3.728-2.079a3.289,3.289,0,0,1,1.792.717c.287.215.43.215.645,0a.07.07,0,0,1,.072-.072,4.739,4.739,0,0,1,5.3-1.075,6.167,6.167,0,0,1,3.943,4.8,2.616,2.616,0,0,1-2.079,3.082,2.21,2.21,0,0,1-.717.072,1.881,1.881,0,0,1-1.935-1.219,10.5,10.5,0,0,0-1-2.007c-.5-.789-.86-.789-1.362-.072a15.426,15.426,0,0,0-2.509,6.738,28.862,28.862,0,0,0-.215,8.6,24.186,24.186,0,0,0,.717,2.437c.43,1.792-.287,2.724-2.079,2.867h-.645C98.75,83.487,97.747,82.555,97.818,79.975Z" transform="translate(-27.544 -16.32)"/>
    </g>
  </g>
</svg>
